<?xml version="1.0" encoding="UTF-8"?> <svg xmlns="http://www.w3.org/2000/svg" width="49" height="48" viewBox="0 0 49 48" fill="none"><g opacity="0.5"><path d="M28.6377 31.9843L25.718 32.4582L25.7468 43.0077C25.755 45.3729 27.1457 46.4874 29.473 46.4801C30.0321 46.4801 30.5573 46.3728 30.5573 46.3728L30.552 44.6168C30.5202 44.6109 30.3053 44.6109 30.142 44.608C28.9145 44.5686 28.6708 43.8967 28.6678 43.1223L28.6516 37.1848L30.5313 37.1789L30.5254 35.0967L28.6471 35.1025L28.6375 31.9843H28.6377ZM46.7004 44.5551C45.5142 44.4691 45.2646 43.9526 45.2631 43.09L45.2314 31.9225L42.3789 32.4148L42.4077 42.9151C42.4136 45.4023 43.7748 46.4647 46.0475 46.4581C46.535 46.4581 47.1377 46.3413 47.1377 46.3413L47.1335 44.5588C47.1335 44.5588 46.8662 44.567 46.7007 44.5529L46.7004 44.5551ZM18.1437 37.1449L18.165 46.4196L21.0692 46.4113L21.0456 37.6796C21.4259 37.3129 22.2303 36.9867 22.9918 36.9536C23.7001 36.9242 24.1602 37.0704 24.1602 37.0704L24.9594 35.2718C24.6455 35.1226 23.9017 34.9316 23.0383 34.9338C21.7871 34.9397 19.8675 35.3078 18.1436 37.1447L18.1437 37.1449ZM36.8526 44.5733C36.0712 44.5733 35.5409 44.322 35.1967 43.9539C34.6819 43.4028 34.4507 42.2691 34.5083 41.0678L40.652 41.0507V40.7693C40.587 36.7671 39.2095 34.9523 36.2078 34.9604C32.859 34.9698 31.5613 38.0345 31.5443 40.9185C31.5296 42.7384 32.2239 44.5694 33.4957 45.612C34.2609 46.2461 35.3304 46.5937 36.5661 46.5907C37.2411 46.5907 37.9458 46.4893 38.5861 46.2902C39.8166 45.9066 40.7251 45.2483 40.7251 45.2483L39.9148 43.6054C39.7723 43.7134 38.5462 44.5687 36.8526 44.5731V44.5733ZM36.2123 37.0684C37.4797 37.0625 37.6688 38.4321 37.6703 39.2807L34.5888 39.2889C34.6354 38.1971 35.0874 37.0714 36.2123 37.0685V37.0684ZM6.79961 34.9519C5.43764 34.9578 4.216 35.3421 2.96113 35.9696L2.64058 36.1312L3.41093 37.83L3.84375 37.6257C4.72933 37.226 5.6799 36.9586 6.53224 36.9916C7.56332 37.0316 7.98801 37.5008 7.99097 38.4846L7.99215 39.06L6.30298 39.0658C3.58864 39.0723 1.90612 40.5104 1.86328 42.7308C1.86996 44.8402 3.64477 46.6565 6.10504 46.6491C8.0889 46.6433 9.76921 45.996 10.9007 44.8645L10.8852 38.8402C10.8763 35.9064 8.76691 34.9468 6.79929 34.9527L6.79961 34.9519ZM8.00394 44.3075C7.72401 44.5037 7.15086 44.6749 6.52527 44.6764C5.37971 44.6823 4.85973 43.8079 4.87598 42.7895C4.89442 41.9438 5.42107 40.9857 6.85173 40.9821L7.99433 40.9762L8.00397 44.3046L8.00394 44.3075ZM13.0387 46.4242L15.8875 46.416L15.8557 35.1295L13.0084 35.5998L13.0387 46.4241L13.0387 46.4242ZM14.4488 30.6211C13.437 30.6211 12.612 31.4345 12.6164 32.4279C12.6176 33.4411 13.4185 34.2331 14.4341 34.2295C15.4489 34.2295 16.2414 33.4337 16.2377 32.4308C16.2533 31.9518 16.076 31.4992 15.7414 31.1597C15.4024 30.8107 14.9422 30.6196 14.4488 30.6211Z" fill="#293036"></path><path d="M35.5514 6.47651C35.0728 4.9688 34.1495 3.72925 32.8127 2.79542C32.6561 2.66904 30.9847 1.34279 27.8412 1.35161C24.9651 1.35984 21.815 2.47136 18.4773 4.66238L18.3724 4.73222L18.3561 4.74103L18.0578 4.92836L17.8007 5.10253C17.119 5.56466 16.4668 6.06505 15.8604 6.59848C14.4519 7.96217 12.847 10.2384 12.9541 12.1671C12.9984 12.9879 13.3433 13.6542 13.9792 14.1473C14.5516 14.5933 15.2673 14.8166 16.1005 14.8137C17.8155 14.8078 19.6901 13.8769 20.9715 13.0892L21.2138 12.9232C21.4376 12.7777 21.6606 12.6285 21.8829 12.4772L22.1038 12.331C23.9244 11.1091 25.8101 9.8453 27.9335 9.10397C28.4845 8.91217 28.9661 8.81959 29.4107 8.81812C29.6301 8.81812 29.8435 8.83928 30.0489 8.88866C30.6951 9.0349 31.1708 9.39858 31.4544 9.97315C31.9507 10.9732 31.8377 12.5499 31.1708 13.9952C30.2601 15.9651 28.6943 17.907 26.5132 19.7711C25.406 20.7174 24.3772 21.4507 23.4628 21.9496L23.3808 21.9931C22.9561 22.2282 22.4753 22.4904 21.9694 22.6844L21.8999 22.7103C21.7485 22.7667 21.6207 22.8183 21.5048 22.8565C20.1266 23.2283 20.1495 22.5883 20.3607 22.0806C20.4744 21.8028 20.86 21.3231 21.3283 20.8352C21.5838 20.5773 21.8453 20.3333 22.1156 20.0806C22.4059 19.8117 22.7035 19.5347 23.0027 19.2305L23.0691 19.1666C23.4399 18.7933 23.9495 18.2834 23.9178 17.5531C23.8727 16.5861 22.8823 15.9859 21.9546 15.9624H21.8874C20.9937 15.9624 20.1517 16.487 19.6007 16.9263C19.0504 17.3679 18.461 18.0306 18.0711 18.653C17.5075 19.5516 16.3154 21.841 17.4846 23.6662C17.9544 24.3965 18.7328 24.7653 19.8016 24.7624C20.549 24.7624 21.4309 24.5773 22.4258 24.2158C23.9141 23.675 25.0907 22.9314 26.2288 22.2114L26.5354 22.0167C27.7407 21.2577 28.9122 20.3745 30.1235 19.3172C32.7964 16.9763 34.3992 14.6875 35.3128 11.8889C35.6821 10.7552 36.2058 8.5458 35.5514 6.47674" fill="#293036"></path></g></svg> 