<svg xmlns="http://www.w3.org/2000/svg" width="133" height="44" viewBox="0 0 133 44" fill="none"><rect x="0.637634" width="132" height="44" rx="5.5" fill="#353E46"></rect><path d="M90.3161 21.121V23.6411H88.7364V25.2938H90.3161V30.9092C90.3161 32.8267 91.1835 33.5937 93.3658 33.5937C93.7493 33.5937 94.1145 33.5481 94.4341 33.4933V31.8588C94.1602 31.8862 93.9867 31.9045 93.6854 31.9045C92.7084 31.9045 92.2792 31.448 92.2792 30.407V25.2938H94.4341V23.6411H92.2792V21.121H90.3161Z" fill="white"></path><path d="M99.9933 33.7307C102.897 33.7307 104.677 31.7858 104.677 28.5626C104.677 25.3577 102.888 23.4037 99.9933 23.4037C97.0897 23.4037 95.3001 25.3577 95.3001 28.5626C95.3001 31.7858 97.0806 33.7307 99.9933 33.7307ZM99.9933 31.9867C98.2859 31.9867 97.3271 30.7358 97.3271 28.5626C97.3271 26.4077 98.2859 25.1477 99.9933 25.1477C101.692 25.1477 102.66 26.4077 102.66 28.5626C102.66 30.7266 101.692 31.9867 99.9933 31.9867Z" fill="white"></path><path d="M106.201 33.5389H108.164V27.6678C108.164 26.2708 109.214 25.3303 110.702 25.3303C111.049 25.3303 111.634 25.3942 111.798 25.449V23.5132C111.588 23.4585 111.214 23.4311 110.922 23.4311C109.625 23.4311 108.52 24.1433 108.237 25.1203H108.091V23.5954H106.201V33.5389Z" fill="white"></path><path d="M116.672 25.0746C118.124 25.0746 119.074 26.0881 119.12 27.6495H114.098C114.207 26.0973 115.221 25.0746 116.672 25.0746ZM119.11 30.8545C118.745 31.6306 117.933 32.0597 116.746 32.0597C115.175 32.0597 114.161 30.9549 114.098 29.2109V29.1013H121.119V28.4165C121.119 25.2938 119.448 23.4037 116.682 23.4037C113.878 23.4037 112.098 25.4216 112.098 28.5991C112.098 31.7767 113.842 33.7307 116.691 33.7307C118.964 33.7307 120.553 32.635 121.001 30.8545H119.11Z" fill="white"></path><path d="M77.4421 29.8669C77.5936 32.3086 79.6283 33.8702 82.6567 33.8702C85.8934 33.8702 87.9186 32.2329 87.9186 29.6209C87.9186 27.5672 86.764 26.4316 83.9627 25.7786L82.458 25.4095C80.6788 24.9931 79.9595 24.4347 79.9595 23.4599C79.9595 22.2296 81.0763 21.4252 82.7514 21.4252C84.3413 21.4252 85.4391 22.2107 85.6378 23.4694H87.701C87.5779 21.1697 85.5527 19.5513 82.7798 19.5513C79.7986 19.5513 77.8112 21.1697 77.8112 23.6019C77.8112 25.6082 78.9374 26.8007 81.4075 27.3779L83.1678 27.8038C84.9754 28.2297 85.7703 28.8543 85.7703 29.8953C85.7703 31.1067 84.5211 31.9869 82.8176 31.9869C80.9911 31.9869 79.7229 31.1635 79.5431 29.8669H77.4421Z" fill="white"></path><path d="M57.1061 23.4311C55.7547 23.4311 54.5859 24.1067 53.9833 25.239H53.8372V23.5954H51.9471V36.8443H53.9103V32.0323H54.0655C54.5859 33.0824 55.709 33.7033 57.1243 33.7033C59.6353 33.7033 61.2332 31.7219 61.2332 28.5626C61.2332 25.4033 59.6353 23.4311 57.1061 23.4311ZM56.5491 31.941C54.9055 31.941 53.8737 30.6444 53.8737 28.5717C53.8737 26.4899 54.9055 25.1933 56.5582 25.1933C58.22 25.1933 59.2153 26.4625 59.2153 28.5626C59.2153 30.6718 58.22 31.941 56.5491 31.941Z" fill="white"></path><path d="M68.1025 23.4311C66.7512 23.4311 65.5824 24.1067 64.9798 25.239H64.8337V23.5954H62.9436V36.8443H64.9067V32.0323H65.062C65.5824 33.0824 66.7055 33.7033 68.1208 33.7033C70.6318 33.7033 72.2297 31.7219 72.2297 28.5626C72.2297 25.4033 70.6318 23.4311 68.1025 23.4311ZM67.5456 31.941C65.902 31.941 64.8702 30.6444 64.8702 28.5717C64.8702 26.4899 65.902 25.1933 67.5547 25.1933C69.2165 25.1933 70.2118 26.4625 70.2118 28.5626C70.2118 30.6718 69.2165 31.941 67.5456 31.941Z" fill="white"></path><path d="M48.4249 33.5389H50.6773L45.7467 19.8826H43.4659L38.5352 33.5389H40.7119L41.9706 29.9143H47.1757L48.4249 33.5389ZM44.4974 22.3621H44.6583L46.6363 28.1351H42.51L44.4974 22.3621Z" fill="white"></path><path d="M39.8539 9.58202V16.1699H42.2325C44.1956 16.1699 45.3324 14.9601 45.3324 12.8554C45.3324 10.7827 44.1865 9.58202 42.2325 9.58202H39.8539ZM40.8765 10.5134H42.1183C43.4834 10.5134 44.2915 11.3808 44.2915 12.8691C44.2915 14.3803 43.4971 15.2386 42.1183 15.2386H40.8765V10.5134Z" fill="white"></path><path d="M48.814 16.2658C50.2658 16.2658 51.1561 15.2934 51.1561 13.6818C51.1561 12.0793 50.2612 11.1023 48.814 11.1023C47.3622 11.1023 46.4674 12.0793 46.4674 13.6818C46.4674 15.2934 47.3576 16.2658 48.814 16.2658ZM48.814 15.3938C47.9603 15.3938 47.4809 14.7683 47.4809 13.6818C47.4809 12.6043 47.9603 11.9743 48.814 11.9743C49.6632 11.9743 50.1471 12.6043 50.1471 13.6818C50.1471 14.7638 49.6632 15.3938 48.814 15.3938Z" fill="white"></path><path d="M58.7374 11.1982H57.7558L56.8702 14.9921H56.7925L55.7699 11.1982H54.8294L53.8067 14.9921H53.7337L52.8434 11.1982H51.8482L53.2178 16.1699H54.2268L55.2494 12.5085H55.327L56.3543 16.1699H57.3723L58.7374 11.1982Z" fill="white"></path><path d="M59.8678 16.1699H60.8494V13.2618C60.8494 12.4856 61.3105 12.0017 62.0364 12.0017C62.7623 12.0017 63.1093 12.3989 63.1093 13.1978V16.1699H64.0908V12.9513C64.0908 11.7689 63.4791 11.1023 62.3697 11.1023C61.6209 11.1023 61.1279 11.4356 60.8859 11.988H60.8129V11.1982H59.8678V16.1699Z" fill="white"></path><path d="M65.6367 16.1699H66.6183V9.25787H65.6367V16.1699Z" fill="white"></path><path d="M70.3099 16.2658C71.7617 16.2658 72.6519 15.2934 72.6519 13.6818C72.6519 12.0793 71.7571 11.1023 70.3099 11.1023C68.8581 11.1023 67.9632 12.0793 67.9632 13.6818C67.9632 15.2934 68.8535 16.2658 70.3099 16.2658ZM70.3099 15.3938C69.4561 15.3938 68.9768 14.7683 68.9768 13.6818C68.9768 12.6043 69.4561 11.9743 70.3099 11.9743C71.159 11.9743 71.643 12.6043 71.643 13.6818C71.643 14.7638 71.159 15.3938 70.3099 15.3938Z" fill="white"></path><path d="M75.5765 15.4258C75.0424 15.4258 74.6543 15.1655 74.6543 14.7181C74.6543 14.2798 74.9648 14.047 75.6496 14.0014L76.864 13.9237V14.3392C76.864 14.9555 76.3161 15.4258 75.5765 15.4258ZM75.3254 16.2521C75.9783 16.2521 76.5216 15.9691 76.8183 15.4714H76.896V16.1699H77.841V12.7733C77.841 11.7232 77.1379 11.1023 75.8916 11.1023C74.7639 11.1023 73.9604 11.6502 73.8599 12.5039H74.8096C74.9191 12.1524 75.298 11.9515 75.8459 11.9515C76.517 11.9515 76.864 12.2482 76.864 12.7733V13.2024L75.5172 13.28C74.3347 13.3531 73.6682 13.869 73.6682 14.7638C73.6682 15.6723 74.3667 16.2521 75.3254 16.2521Z" fill="white"></path><path d="M81.1719 16.2521C81.8567 16.2521 82.4366 15.928 82.7333 15.3847H82.8109V16.1699H83.7514V9.25787H82.7698V11.988H82.6968C82.4274 11.4401 81.8522 11.116 81.1719 11.116C79.9164 11.116 79.1084 12.1113 79.1084 13.6818C79.1084 15.2568 79.9073 16.2521 81.1719 16.2521ZM81.4504 11.9971C82.2722 11.9971 82.7881 12.65 82.7881 13.6863C82.7881 14.7273 82.2768 15.371 81.4504 15.371C80.6195 15.371 80.1219 14.7364 80.1219 13.6818C80.1219 12.6363 80.6241 11.9971 81.4504 11.9971Z" fill="white"></path><path d="M90.1165 16.2658C91.5683 16.2658 92.4586 15.2934 92.4586 13.6818C92.4586 12.0793 91.5638 11.1023 90.1165 11.1023C88.6647 11.1023 87.7699 12.0793 87.7699 13.6818C87.7699 15.2934 88.6602 16.2658 90.1165 16.2658ZM90.1165 15.3938C89.2628 15.3938 88.7834 14.7683 88.7834 13.6818C88.7834 12.6043 89.2628 11.9743 90.1165 11.9743C90.9657 11.9743 91.4496 12.6043 91.4496 13.6818C91.4496 14.7638 90.9657 15.3938 90.1165 15.3938Z" fill="white"></path><path d="M93.7579 16.1699H94.7395V13.2618C94.7395 12.4856 95.2006 12.0017 95.9265 12.0017C96.6524 12.0017 96.9994 12.3989 96.9994 13.1978V16.1699H97.9809V12.9513C97.9809 11.7689 97.3692 11.1023 96.2598 11.1023C95.511 11.1023 95.018 11.4356 94.776 11.988H94.703V11.1982H93.7579V16.1699Z" fill="white"></path><path d="M102.502 9.96095V11.221H101.712V12.0474H102.502V14.8551C102.502 15.8138 102.935 16.1973 104.026 16.1973C104.218 16.1973 104.401 16.1745 104.561 16.1471V15.3299C104.424 15.3436 104.337 15.3527 104.186 15.3527C103.698 15.3527 103.483 15.1245 103.483 14.604V12.0474H104.561V11.221H103.483V9.96095H102.502Z" fill="white"></path><path d="M105.878 16.1699H106.86V13.2663C106.86 12.513 107.307 12.0063 108.111 12.0063C108.805 12.0063 109.174 12.408 109.174 13.2024V16.1699H110.156V12.9604C110.156 11.778 109.503 11.1069 108.444 11.1069C107.695 11.1069 107.17 11.4401 106.928 11.9971H106.851V9.25787H105.878V16.1699Z" fill="white"></path><path d="M113.697 11.9378C114.423 11.9378 114.898 12.4445 114.921 13.2252H112.41C112.464 12.4491 112.971 11.9378 113.697 11.9378ZM114.916 14.8277C114.733 15.2158 114.327 15.4303 113.733 15.4303C112.948 15.4303 112.441 14.8779 112.41 14.0059V13.9511H115.92V13.6087C115.92 12.0474 115.085 11.1023 113.702 11.1023C112.3 11.1023 111.41 12.1113 111.41 13.7C111.41 15.2888 112.282 16.2658 113.706 16.2658C114.843 16.2658 115.637 15.718 115.861 14.8277H114.916Z" fill="white"></path><path d="M27.8835 22.3309C27.9073 20.4818 28.9004 18.7321 30.4757 17.7636C29.4819 16.3443 27.8173 15.4444 26.0855 15.3902C24.2383 15.1963 22.4476 16.4955 21.5063 16.4955C20.5468 16.4955 19.0975 15.4094 17.5369 15.4415C15.5027 15.5073 13.6064 16.6638 12.6167 18.4422C10.4893 22.1255 12.0762 27.5386 14.114 30.5159C15.1336 31.9738 16.3252 33.6023 17.8844 33.5445C19.4102 33.4812 19.98 32.5716 21.8218 32.5716C23.6464 32.5716 24.181 33.5445 25.7719 33.5078C27.4091 33.4812 28.4406 32.0434 29.4244 30.5717C30.157 29.5329 30.7207 28.3848 31.0947 27.17C29.1707 26.3562 27.8858 24.4199 27.8835 22.3309Z" fill="white"></path><path d="M24.8787 13.4322C25.7714 12.3606 26.2112 10.9832 26.1047 9.5925C24.7408 9.73574 23.4811 10.3876 22.5763 11.4181C21.6916 12.4249 21.2312 13.7781 21.3182 15.1156C22.6825 15.1296 24.0238 14.4955 24.8787 13.4322Z" fill="white"></path></svg>