<?xml version="1.0" encoding="UTF-8"?> <svg xmlns="http://www.w3.org/2000/svg" width="90" height="30" viewBox="0 0 90 30" fill="none"><g opacity="0.5" clip-path="url(#clip0_1_577)"><path d="M38.1241 15.3847C38.1241 19.5488 34.8553 22.6173 30.8437 22.6173C26.8322 22.6173 23.5634 19.5488 23.5634 15.3847C23.5634 11.1912 26.8322 8.1521 30.8437 8.1521C34.8553 8.1521 38.1241 11.1912 38.1241 15.3847ZM34.9371 15.3847C34.9371 12.7825 33.0426 11.0021 30.8437 11.0021C28.6449 11.0021 26.7504 12.7825 26.7504 15.3847C26.7504 17.9608 28.6449 19.7673 30.8437 19.7673C33.0426 19.7673 34.9371 17.9575 34.9371 15.3847Z" fill="#293036"></path><path d="M53.83 15.3847C53.83 19.5488 50.5612 22.6173 46.5496 22.6173C42.5381 22.6173 39.2693 19.5488 39.2693 15.3847C39.2693 11.1945 42.5381 8.1521 46.5496 8.1521C50.5612 8.1521 53.83 11.1912 53.83 15.3847ZM50.643 15.3847C50.643 12.7825 48.7485 11.0021 46.5496 11.0021C44.3508 11.0021 42.4563 12.7825 42.4563 15.3847C42.4563 17.9608 44.3508 19.7673 46.5496 19.7673C48.7485 19.7673 50.643 17.9575 50.643 15.3847Z" fill="#293036"></path><path d="M68.8814 8.58906V21.5738C68.8814 26.9151 65.7206 29.0967 61.9839 29.0967C58.4665 29.0967 56.3494 26.7521 55.5511 24.8347L58.3258 23.6836C58.8198 24.8608 60.0305 26.2499 61.9807 26.2499C64.3725 26.2499 65.8548 24.7793 65.8548 22.0108V20.9706H65.7435C65.0302 21.8478 63.6559 22.6141 61.9218 22.6141C58.293 22.6141 54.9686 19.4641 54.9686 15.4108C54.9686 11.3282 58.293 8.1521 61.9218 8.1521C63.6527 8.1521 65.0269 8.9184 65.7435 9.76949H65.8548V8.59232H68.8814V8.58906ZM66.0805 15.4108C66.0805 12.8641 64.3758 11.0021 62.2064 11.0021C60.0076 11.0021 58.1654 12.8641 58.1654 15.4108C58.1654 17.9314 60.0076 19.7673 62.2064 19.7673C64.3758 19.7673 66.0805 17.9314 66.0805 15.4108Z" fill="#293036"></path><path d="M73.8713 0.978516V22.1742H70.7628V0.978516H73.8713Z" fill="#293036"></path><path d="M85.9848 17.7647L88.4585 19.4082C87.6601 20.5854 85.7362 22.6137 82.4118 22.6137C78.289 22.6137 75.21 19.4376 75.21 15.381C75.21 11.08 78.3151 8.14844 82.0551 8.14844C85.8212 8.14844 87.6634 11.1354 88.2655 12.7495L88.596 13.5713L78.8943 17.5756C79.6371 19.0267 80.7921 19.7669 82.4118 19.7669C84.0347 19.7669 85.1603 18.9713 85.9848 17.7647ZM78.3708 15.1626L84.856 12.4789C84.4993 11.5756 83.4261 10.9463 82.1631 10.9463C80.5434 10.9463 78.289 12.3713 78.3708 15.1626Z" fill="#293036"></path><path d="M11.7975 13.5033V10.4348H22.1732C22.2746 10.9696 22.327 11.6022 22.327 12.287C22.327 14.5892 21.6954 17.4359 19.6602 19.4642C17.6806 21.5185 15.1513 22.6142 11.8007 22.6142C5.59037 22.6142 0.368164 17.5729 0.368164 11.3838C0.368164 5.19462 5.59037 0.15332 11.8007 0.15332C15.2364 0.15332 17.6839 1.4968 19.5228 3.24789L17.3501 5.4131C16.0315 4.18049 14.245 3.2218 11.7975 3.2218C7.26239 3.2218 3.71548 6.86419 3.71548 11.3838C3.71548 15.9033 7.26239 19.5457 11.7975 19.5457C14.739 19.5457 16.4143 18.3685 17.4876 17.299C18.3579 16.4316 18.9306 15.1925 19.1563 13.5001L11.7975 13.5033Z" fill="#293036"></path></g><defs><clipPath id="clip0_1_577"><rect width="89" height="30" fill="white" transform="translate(0.25)"></rect></clipPath></defs></svg> 