<?xml version="1.0" encoding="UTF-8"?> <svg xmlns="http://www.w3.org/2000/svg" width="108" height="32" viewBox="0 0 108 32" fill="none"><rect width="107.984" height="31.9952" rx="3.9994" fill="#353E46"></rect><path d="M54.5006 17.3983C52.6192 17.3983 51.0859 18.8292 51.0859 20.8001C51.0859 22.759 52.6192 24.202 54.5006 24.202C56.3827 24.202 57.916 22.759 57.916 20.8001C57.9152 18.8292 56.3819 17.3983 54.5006 17.3983ZM54.5006 22.863C53.4695 22.863 52.5808 22.0128 52.5808 20.8009C52.5808 19.5763 53.4703 18.7388 54.5006 18.7388C55.5316 18.7388 56.4203 19.5763 56.4203 20.8009C56.4203 22.012 55.5316 22.863 54.5006 22.863ZM47.0505 17.3983C45.1692 17.3983 43.6358 18.8292 43.6358 20.8001C43.6358 22.759 45.1692 24.202 47.0505 24.202C48.9326 24.202 50.466 22.759 50.466 20.8001C50.466 18.8292 48.9326 17.3983 47.0505 17.3983ZM47.0505 22.863C46.0194 22.863 45.1308 22.0128 45.1308 20.8009C45.1308 19.5763 46.0202 18.7388 47.0505 18.7388C48.0815 18.7388 48.9702 19.5763 48.9702 20.8009C48.971 22.012 48.0815 22.863 47.0505 22.863ZM38.1894 18.4429V19.8859H41.6433C41.5401 20.6978 41.2698 21.2905 40.857 21.7024C40.3547 22.2047 39.5684 22.759 38.1894 22.759C36.0633 22.759 34.4012 21.0449 34.4012 18.9188C34.4012 16.7927 36.0633 15.0786 38.1894 15.0786C39.3364 15.0786 40.1739 15.5297 40.7922 16.1096L41.8105 15.0914C40.9466 14.2667 39.8004 13.6356 38.1894 13.6356C35.2771 13.6356 32.8286 16.0065 32.8286 18.9188C32.8286 21.8312 35.2771 24.202 38.1894 24.202C39.7612 24.202 40.9474 23.6861 41.8745 22.7198C42.8279 21.7664 43.1247 20.4258 43.1247 19.3436C43.1247 19.0092 43.0991 18.6997 43.0471 18.4421H38.1894V18.4429ZM74.4303 19.5635C74.1472 18.8036 73.2833 17.3983 71.518 17.3983C69.7654 17.3983 68.3089 18.7772 68.3089 20.8001C68.3089 22.7071 69.7526 24.202 71.6852 24.202C73.2441 24.202 74.1464 23.2486 74.5207 22.6943L73.3609 21.9208C72.9746 22.4879 72.4458 22.8614 71.6852 22.8614C70.9253 22.8614 70.3838 22.5135 70.0358 21.8304L74.5847 19.9491L74.4303 19.5635ZM69.791 20.6978C69.7526 19.3828 70.8093 18.7133 71.57 18.7133C72.1627 18.7133 72.665 19.01 72.833 19.4347L69.791 20.6978ZM66.0932 23.9965H67.5874V13.9972H66.0932V23.9965ZM63.644 18.1589H63.5928C63.2576 17.759 62.6129 17.3983 61.8018 17.3983C60.1005 17.3983 58.5415 18.8932 58.5415 20.8137C58.5415 22.7206 60.1005 24.2028 61.8018 24.2028C62.6137 24.2028 63.2576 23.8421 63.5928 23.4301H63.644V23.9197C63.644 25.2211 62.9481 25.917 61.8274 25.917C60.9124 25.917 60.3453 25.2603 60.1133 24.7059L58.8119 25.2475C59.1854 26.1489 60.1773 27.2576 61.8274 27.2576C63.58 27.2576 65.0622 26.2265 65.0622 23.7133V17.6054H63.6448V18.1589H63.644ZM61.9306 22.863C60.8996 22.863 60.0365 21.9992 60.0365 20.8137C60.0365 19.6147 60.8996 18.7388 61.9306 18.7388C62.9481 18.7388 63.7472 19.6147 63.7472 20.8137C63.7472 21.9992 62.9481 22.863 61.9306 22.863ZM81.4325 13.9972H77.8562V23.9965H79.348V20.2082H81.4317C83.0858 20.2082 84.7128 19.0108 84.7128 17.1031C84.7128 15.1954 83.0866 13.9972 81.4325 13.9972ZM81.4709 18.8164H79.348V15.389H81.4709C82.5867 15.389 83.2202 16.3128 83.2202 17.1031C83.2202 17.8774 82.5867 18.8164 81.4709 18.8164ZM90.6951 17.3807C89.6144 17.3807 88.4954 17.8566 88.0323 18.9116L89.3569 19.4643C89.64 18.9116 90.168 18.7308 90.7207 18.7308C91.4926 18.7308 92.2772 19.194 92.29 20.0171V20.1202C92.0197 19.9659 91.4406 19.7347 90.7335 19.7347C89.3057 19.7347 87.8515 20.5194 87.8515 21.9856C87.8515 23.3238 89.0225 24.1852 90.3343 24.1852C91.3374 24.1852 91.8909 23.7349 92.238 23.207H92.2892V23.9789H93.7306V20.145C93.7314 18.3709 92.4052 17.3807 90.6951 17.3807ZM90.5143 22.8606C90.0264 22.8606 89.3441 22.6159 89.3441 22.0112C89.3441 21.2393 90.1936 20.9433 90.927 20.9433C91.5821 20.9433 91.8917 21.0849 92.29 21.2777C92.1741 22.2047 91.3766 22.8606 90.5143 22.8606ZM98.9794 17.599L97.2685 21.9344H97.2173L95.4416 17.599H93.8338L96.4966 23.6581L94.9784 27.0288H96.535L100.639 17.599H98.9794ZM85.5367 23.9965H87.0284V13.9972H85.5367V23.9965Z" fill="white"></path><path d="M37.9287 8.1931C37.9287 8.8634 37.7303 9.39692 37.3328 9.79526C36.8817 10.2688 36.293 10.5056 35.5699 10.5056C34.8772 10.5056 34.2877 10.2656 33.8037 9.78566C33.319 9.30494 33.0766 8.70983 33.0766 7.99953C33.0766 7.28844 33.319 6.69333 33.8037 6.2134C34.2877 5.73268 34.8772 5.49271 35.5699 5.49271C35.9138 5.49271 36.2426 5.5599 36.5545 5.69348C36.8673 5.82786 37.1176 6.00623 37.3048 6.2294L36.8833 6.65174C36.5657 6.27179 36.1282 6.08222 35.5691 6.08222C35.0635 6.08222 34.6268 6.2598 34.2581 6.61494C33.8893 6.97009 33.7053 7.43162 33.7053 7.99873C33.7053 8.56585 33.8893 9.02738 34.2581 9.38252C34.6268 9.73767 35.0635 9.91524 35.5691 9.91524C36.105 9.91524 36.5521 9.73687 36.9097 9.37932C37.1416 9.14656 37.276 8.82261 37.312 8.40747H35.5691V7.83076H37.8943C37.9183 7.95634 37.9287 8.07712 37.9287 8.1931Z" fill="white"></path><path d="M41.6162 6.18865H39.431V7.71002H41.4019V8.28674H39.431V9.8081H41.6162V10.3984H38.8143V5.59914H41.6162V6.18865Z" fill="white"></path><path d="M44.2165 10.3984H43.5998V6.18865H42.2592V5.59914H45.5571V6.18865H44.2165V10.3984Z" fill="white"></path><path d="M47.9431 10.3984V5.59914H48.5599V10.3984H47.9431Z" fill="white"></path><path d="M51.2948 10.3984H50.6781V6.18865H49.3375V5.59914H52.6354V6.18865H51.2948V10.3984Z" fill="white"></path><path d="M58.8782 9.7785C58.4063 10.2632 57.82 10.5056 57.1185 10.5056C56.417 10.5056 55.8307 10.2632 55.3596 9.7785C54.8876 9.29378 54.6525 8.70027 54.6525 7.99877C54.6525 7.29728 54.8876 6.70377 55.3596 6.21904C55.8307 5.73431 56.417 5.49115 57.1185 5.49115C57.816 5.49115 58.4015 5.73511 58.875 6.22224C59.3486 6.70937 59.5853 7.30128 59.5853 7.99877C59.5853 8.70027 59.3494 9.29378 58.8782 9.7785ZM55.8147 9.37616C56.1699 9.73611 56.6042 9.91528 57.1185 9.91528C57.6328 9.91528 58.068 9.73531 58.4223 9.37616C58.7775 9.01622 58.9558 8.55709 58.9558 7.99877C58.9558 7.44046 58.7775 6.98132 58.4223 6.62138C58.068 6.26143 57.6328 6.08226 57.1185 6.08226C56.6042 6.08226 56.1699 6.26223 55.8147 6.62138C55.4604 6.98132 55.282 7.44046 55.282 7.99877C55.282 8.55709 55.4604 9.01622 55.8147 9.37616Z" fill="white"></path><path d="M60.4508 10.3984V5.59914H61.2011L63.5336 9.33218H63.56L63.5336 8.40752V5.59914H64.1503V10.3984H63.5064L61.0659 6.48381H61.0395L61.0659 7.40847V10.3984H60.4508Z" fill="white"></path><path d="M37.9287 8.1931C37.9287 8.8634 37.7303 9.39692 37.3328 9.79526C36.8817 10.2688 36.293 10.5056 35.5699 10.5056C34.8772 10.5056 34.2877 10.2656 33.8037 9.78566C33.319 9.30494 33.0766 8.70983 33.0766 7.99953C33.0766 7.28844 33.319 6.69333 33.8037 6.2134C34.2877 5.73268 34.8772 5.49271 35.5699 5.49271C35.9138 5.49271 36.2426 5.5599 36.5545 5.69348C36.8673 5.82786 37.1176 6.00623 37.3048 6.2294L36.8833 6.65174C36.5657 6.27179 36.1282 6.08222 35.5691 6.08222C35.0635 6.08222 34.6268 6.2598 34.2581 6.61494C33.8893 6.97009 33.7053 7.43162 33.7053 7.99873C33.7053 8.56585 33.8893 9.02738 34.2581 9.38252C34.6268 9.73767 35.0635 9.91524 35.5691 9.91524C36.105 9.91524 36.5521 9.73687 36.9097 9.37932C37.1416 9.14656 37.276 8.82261 37.312 8.40747H35.5691V7.83076H37.8943C37.9183 7.95634 37.9287 8.07712 37.9287 8.1931Z" stroke="white" stroke-width="0.159976" stroke-miterlimit="10"></path><path d="M41.6162 6.18865H39.431V7.71002H41.4019V8.28674H39.431V9.8081H41.6162V10.3984H38.8143V5.59914H41.6162V6.18865Z" stroke="white" stroke-width="0.159976" stroke-miterlimit="10"></path><path d="M44.2165 10.3984H43.5998V6.18865H42.2592V5.59914H45.5571V6.18865H44.2165V10.3984Z" stroke="white" stroke-width="0.159976" stroke-miterlimit="10"></path><path d="M47.9431 10.3984V5.59914H48.5599V10.3984H47.9431Z" stroke="white" stroke-width="0.159976" stroke-miterlimit="10"></path><path d="M51.2948 10.3984H50.6781V6.18865H49.3375V5.59914H52.6354V6.18865H51.2948V10.3984Z" stroke="white" stroke-width="0.159976" stroke-miterlimit="10"></path><path d="M58.8782 9.7785C58.4063 10.2632 57.82 10.5056 57.1185 10.5056C56.417 10.5056 55.8307 10.2632 55.3596 9.7785C54.8876 9.29378 54.6525 8.70027 54.6525 7.99877C54.6525 7.29728 54.8876 6.70377 55.3596 6.21904C55.8307 5.73431 56.417 5.49115 57.1185 5.49115C57.816 5.49115 58.4015 5.73511 58.875 6.22224C59.3486 6.70937 59.5853 7.30128 59.5853 7.99877C59.5853 8.70027 59.3494 9.29378 58.8782 9.7785ZM55.8147 9.37616C56.1699 9.73611 56.6042 9.91528 57.1185 9.91528C57.6328 9.91528 58.068 9.73531 58.4223 9.37616C58.7775 9.01622 58.9558 8.55709 58.9558 7.99877C58.9558 7.44046 58.7775 6.98132 58.4223 6.62138C58.068 6.26143 57.6328 6.08226 57.1185 6.08226C56.6042 6.08226 56.1699 6.26223 55.8147 6.62138C55.4604 6.98132 55.282 7.44046 55.282 7.99877C55.282 8.55709 55.4604 9.01622 55.8147 9.37616Z" stroke="white" stroke-width="0.159976" stroke-miterlimit="10"></path><path d="M60.4508 10.3984V5.59914H61.2011L63.5336 9.33218H63.56L63.5336 8.40752V5.59914H64.1503V10.3984H63.5064L61.0659 6.48381H61.0395L61.0659 7.40847V10.3984H60.4508Z" stroke="white" stroke-width="0.159976" stroke-miterlimit="10"></path><g filter="url(#filter0_ii_1747_3028)"><path d="M8.34759 6.02949C8.11483 6.27585 7.97725 6.6582 7.97725 7.15332V24.8434C7.97725 25.3394 8.11483 25.7209 8.34759 25.9673L8.40678 26.0249L18.3165 16.1152V15.9984V15.8816L8.40678 5.9711L8.34759 6.02949Z" fill="url(#paint0_linear_1747_3028)"></path><path d="M21.6192 19.4195L18.3165 16.1152V15.9984V15.8816L21.62 12.5781L21.6944 12.6205L25.6082 14.8442C26.7256 15.4793 26.7256 16.5183 25.6082 17.1542L21.6944 19.3779L21.6192 19.4195Z" fill="url(#paint1_linear_1747_3028)"></path><g filter="url(#filter1_i_1747_3028)"><path d="M21.6944 19.3771L18.3157 15.9984L8.3476 25.9673C8.71555 26.3576 9.32426 26.4056 10.0098 26.0169L21.6944 19.3771Z" fill="url(#paint2_linear_1747_3028)"></path></g><path d="M21.6944 12.6197L10.0098 5.9807C9.32426 5.59116 8.71555 5.63995 8.3476 6.0303L18.3165 15.9992L21.6944 12.6197Z" fill="url(#paint3_linear_1747_3028)"></path></g><defs><filter id="filter0_ii_1747_3028" x="7.97725" y="5.71188" width="18.469" height="20.5735" filterUnits="userSpaceOnUse" color-interpolation-filters="sRGB"><feFlood flood-opacity="0" result="BackgroundImageFix"></feFlood><feBlend mode="normal" in="SourceGraphic" in2="BackgroundImageFix" result="shape"></feBlend><feColorMatrix in="SourceAlpha" type="matrix" values="0 0 0 0 0 0 0 0 0 0 0 0 0 0 0 0 0 0 127 0" result="hardAlpha"></feColorMatrix><feOffset dy="-0.119982"></feOffset><feComposite in2="hardAlpha" operator="arithmetic" k2="-1" k3="1"></feComposite><feColorMatrix type="matrix" values="0 0 0 0 0 0 0 0 0 0 0 0 0 0 0 0 0 0 0.12 0"></feColorMatrix><feBlend mode="normal" in2="shape" result="effect1_innerShadow_1747_3028"></feBlend><feColorMatrix in="SourceAlpha" type="matrix" values="0 0 0 0 0 0 0 0 0 0 0 0 0 0 0 0 0 0 127 0" result="hardAlpha"></feColorMatrix><feOffset dy="0.119982"></feOffset><feComposite in2="hardAlpha" operator="arithmetic" k2="-1" k3="1"></feComposite><feColorMatrix type="matrix" values="0 0 0 0 1 0 0 0 0 1 0 0 0 0 1 0 0 0 0.25 0"></feColorMatrix><feBlend mode="normal" in2="effect1_innerShadow_1747_3028" result="effect2_innerShadow_1747_3028"></feBlend></filter><filter id="filter1_i_1747_3028" x="8.3476" y="15.9984" width="13.3468" height="10.287" filterUnits="userSpaceOnUse" color-interpolation-filters="sRGB"><feFlood flood-opacity="0" result="BackgroundImageFix"></feFlood><feBlend mode="normal" in="SourceGraphic" in2="BackgroundImageFix" result="shape"></feBlend><feColorMatrix in="SourceAlpha" type="matrix" values="0 0 0 0 0 0 0 0 0 0 0 0 0 0 0 0 0 0 127 0" result="hardAlpha"></feColorMatrix><feOffset dy="-0.119982"></feOffset><feComposite in2="hardAlpha" operator="arithmetic" k2="-1" k3="1"></feComposite><feColorMatrix type="matrix" values="0 0 0 0 0 0 0 0 0 0 0 0 0 0 0 0 0 0 0.08 0"></feColorMatrix><feBlend mode="normal" in2="shape" result="effect1_innerShadow_1747_3028"></feBlend></filter><linearGradient id="paint0_linear_1747_3028" x1="17.4381" y1="6.96615" x2="4.01449" y2="20.3897" gradientUnits="userSpaceOnUse"><stop stop-color="#00A0FF"></stop><stop offset="0.0066" stop-color="#00A1FF"></stop><stop offset="0.2601" stop-color="#00BEFF"></stop><stop offset="0.5122" stop-color="#00D2FF"></stop><stop offset="0.7604" stop-color="#00DFFF"></stop><stop offset="1" stop-color="#00E3FF"></stop></linearGradient><linearGradient id="paint1_linear_1747_3028" x1="27.0628" y1="15.9984" x2="7.70899" y2="15.9984" gradientUnits="userSpaceOnUse"><stop stop-color="#FFE000"></stop><stop offset="0.4087" stop-color="#FFBD00"></stop><stop offset="0.7754" stop-color="#FFA500"></stop><stop offset="1" stop-color="#FF9C00"></stop></linearGradient><linearGradient id="paint2_linear_1747_3028" x1="19.8595" y1="17.8332" x2="1.6555" y2="36.0373" gradientUnits="userSpaceOnUse"><stop stop-color="#FF3A44"></stop><stop offset="1" stop-color="#C31162"></stop></linearGradient><linearGradient id="paint3_linear_1747_3028" x1="5.8371" y1="0.141426" x2="13.9657" y2="8.27004" gradientUnits="userSpaceOnUse"><stop stop-color="#32A071"></stop><stop offset="0.0685" stop-color="#2DA771"></stop><stop offset="0.4762" stop-color="#15CF74"></stop><stop offset="0.8009" stop-color="#06E775"></stop><stop offset="1" stop-color="#00F076"></stop></linearGradient></defs></svg> 