<?xml version="1.0" encoding="UTF-8"?> <svg xmlns="http://www.w3.org/2000/svg" width="151" height="72" viewBox="0 0 151 72" fill="none"><g opacity="0.5"><path fill-rule="evenodd" clip-rule="evenodd" d="M100.998 49.8848C104.16 49.8848 106.438 48.2129 107.151 45.6459H105.527C104.957 47.5073 103.25 48.6443 101.027 48.6443C98.065 48.6443 95.6749 46.8066 95.5322 42.8121H107.407C107.407 37.4637 104.503 35.0338 100.714 35.0338C96.8969 35.0338 93.9647 37.6519 93.9647 42.4593C93.9647 47.2679 96.9845 49.8848 100.998 49.8848ZM105.811 41.5941H95.561C95.8452 38.082 98.0099 36.2219 100.714 36.2219C103.476 36.2219 105.613 38.001 105.811 41.5941ZM12.4677 42.981C12.4835 42.989 12.4953 42.9949 12.503 42.9985V40.5674L12.4549 40.5535C12.172 40.4718 11.3722 40.2407 10.2982 40.2407C7.36229 40.2407 5.20886 42.2267 5.20886 44.9346C5.20886 47.8619 7.58515 49.6348 10.2982 49.6348C11.3104 49.6348 12.0991 49.422 12.441 49.3297L12.503 49.3131V46.8745C12.4003 46.9306 11.6103 47.3558 10.476 47.3558C8.86218 47.3558 7.82929 46.2848 7.82929 44.9346C7.82929 43.5445 8.91101 42.5147 10.476 42.5147C11.5398 42.5147 12.2815 42.8875 12.4677 42.981ZM37.6543 42.9771C37.6745 42.9871 37.6894 42.9944 37.6987 42.9985V40.5674L37.6478 40.5529C37.3603 40.4706 36.5571 40.2407 35.4977 40.2407C32.5542 40.2407 30.3983 42.2267 30.3983 44.9346C30.3983 47.8619 32.7784 49.6348 35.4977 49.6348C36.495 49.6348 37.2805 49.4248 37.6292 49.3316L37.6987 49.3131V46.8745L37.6942 46.8769C37.5717 46.9416 36.7875 47.3558 35.6667 47.3558C34.0579 47.3558 33.0238 46.2848 33.0238 44.9346C33.0238 43.5445 34.1055 42.5147 35.6667 42.5147C36.7151 42.5147 37.452 42.8775 37.6543 42.9771ZM45.285 42.5509C43.8539 42.5509 42.7922 43.6181 42.7922 44.9346C42.7922 46.2574 43.8539 47.3233 45.285 47.3233C46.7172 47.3233 47.7827 46.2574 47.7827 44.9346C47.7827 43.6181 46.7172 42.5509 45.285 42.5509ZM50.338 44.9346C50.338 47.5303 48.2271 49.6348 45.285 49.6348C42.3453 49.6348 40.2382 47.5303 40.2382 44.9346C40.2382 42.3452 42.3453 40.2407 45.285 40.2407C48.2271 40.2407 50.338 42.3452 50.338 44.9346ZM25.5008 42.1868C26.3358 42.1868 27.3537 42.4524 27.3863 42.4624V40.5262C27.3161 40.5075 26.2094 40.2407 25.0363 40.2407C22.809 40.2407 21.4706 41.3765 21.4706 43.077C21.4706 44.5756 22.5899 45.3248 23.932 45.7288C24.0872 45.7749 24.3038 45.841 24.4491 45.8859C25.0513 46.0666 25.5283 46.3285 25.5283 46.786C25.5283 47.3046 24.9724 47.6375 23.7743 47.6375C22.8369 47.6375 21.9342 47.4098 21.5951 47.3243C21.5529 47.3136 21.5194 47.3052 21.4956 47.2997V49.3879L21.5263 49.3933C21.7534 49.4336 22.8871 49.6348 24.101 49.6348C25.9465 49.6348 28.0611 48.8693 28.0611 46.5903C28.0611 45.4857 27.3462 44.4671 25.7812 43.9933L25.1114 43.7964L25.057 43.7797C24.6544 43.6566 24.0084 43.459 24.0084 42.9324C24.0084 42.4923 24.5342 42.1868 25.5008 42.1868ZM2.6476 30.6532C2.6476 30.0298 2.11174 29.5212 1.44819 29.5212C0.794646 29.5212 0.253784 30.0298 0.253784 30.6532V33.0332C0.253784 33.6615 0.794646 34.1689 1.44819 34.1689C2.11174 34.1689 2.6476 33.6615 2.6476 33.0332V30.6532ZM8.03566 26.3962C8.6942 26.3962 9.23006 26.9023 9.23006 27.5257V33.0312C9.23006 33.6608 8.6942 34.167 8.03566 34.167C7.3721 34.167 6.83374 33.6608 6.83374 33.0312V27.5257C6.83374 26.9023 7.3721 26.3962 8.03566 26.3962ZM15.809 23.252C15.809 22.6237 15.2757 22.1175 14.6134 22.1175C13.9548 22.1175 13.4139 22.6237 13.4139 23.252V35.2966C13.4139 35.9237 13.9548 36.4336 14.6134 36.4336C15.2757 36.4336 15.809 35.9237 15.809 35.2966V23.252ZM21.1992 26.3962C21.8565 26.3962 22.3923 26.9023 22.3923 27.5257V33.0312C22.3923 33.6608 21.8565 34.167 21.1992 34.167C20.5356 34.167 19.9998 33.6608 19.9998 33.0312V27.5257C19.9998 26.9023 20.5356 26.3962 21.1992 26.3962ZM28.9681 30.6522C28.9681 30.0289 28.436 29.5202 27.7774 29.5202C27.1164 29.5202 26.578 30.0289 26.578 30.6522V33.0322C26.578 33.6606 27.1164 34.168 27.7774 34.168C28.436 34.168 28.9681 33.6606 28.9681 33.0322V30.6522ZM34.359 26.3972C35.0201 26.3972 35.5547 26.9033 35.5547 27.5267V33.0322C35.5547 33.6618 35.0201 34.168 34.359 34.168C33.7005 34.168 33.1659 33.6618 33.1659 33.0322V27.5267C33.1659 26.9033 33.7005 26.3972 34.359 26.3972ZM42.1381 23.2522C42.1381 22.6239 41.6072 22.1177 40.9412 22.1177C40.2876 22.1177 39.748 22.6239 39.748 23.2522V35.2968C39.748 35.9239 40.2876 36.4338 40.9412 36.4338C41.6072 36.4338 42.1381 35.9239 42.1381 35.2968V23.2522ZM47.5126 26.3972C48.1887 26.3972 48.7271 26.9033 48.7271 27.5267V33.0322C48.7271 33.6618 48.1887 34.168 47.5126 34.168C46.8578 34.168 46.3182 33.6618 46.3182 33.0322V27.5267C46.3182 26.9033 46.8578 26.3972 47.5126 26.3972ZM55.2974 30.6522C55.2974 30.0289 54.7591 29.5202 54.1005 29.5202C53.4395 29.5202 52.9061 30.0289 52.9061 30.6522V33.0322C52.9061 33.6606 53.4395 34.168 54.1005 34.168C54.7591 34.168 55.2974 33.6606 55.2974 33.0322V30.6522ZM15.8182 49.4734H18.2358V40.4022H15.8182V49.4734ZM80.3959 49.4824L72.9353 32.0084V49.4824H71.369V30.0373H73.7328L81.2786 47.8629L88.3974 30.0373H90.676V49.4824H89.1386V32.143L82.1036 49.4824H80.3959ZM111 49.4824V35.4381H112.253L112.482 38.1397C113.279 36.0066 114.787 35.0342 116.639 35.0342C117.236 35.0342 117.833 35.1414 118.176 35.2511V36.6823C117.663 36.5452 117.151 36.4367 116.554 36.4367C114.389 36.4367 112.537 38.4377 112.537 41.8113V49.4824H111ZM125.871 35.0338C122.596 35.0338 120.345 36.682 120.118 39.0832H121.712C121.911 37.3801 123.422 36.2219 125.786 36.2219C128.32 36.2219 129.829 37.4637 129.829 39.4896V40.7052L125.385 41.4071C121.229 42.0554 119.691 43.514 119.691 45.9177C119.691 48.4024 121.77 49.8848 124.647 49.8848C127.295 49.8848 128.974 48.6156 129.886 47.1607L130.113 49.4821H131.366V39.6517C131.366 36.788 129.175 35.0338 125.871 35.0338ZM129.829 41.8646V44.4852C129.829 46.9437 127.409 48.6443 125.045 48.6443C122.823 48.6443 121.285 47.6993 121.285 45.8105C121.285 44.1336 122.309 43.0802 125.842 42.5129L129.829 41.8646ZM135.305 49.4824V30.0373H136.842V41.1618L143.933 35.4381H146.013L138.407 41.5707L146.951 49.4824H144.874L136.842 42.0557V49.4824H135.305ZM150.74 30.0373H148.889V32.0345H150.74V30.0373ZM150.566 35.4381H149.029V49.4824H150.566V35.4381Z" fill="#293036"></path></g></svg> 