<?xml version="1.0" encoding="UTF-8"?> <svg xmlns="http://www.w3.org/2000/svg" width="102" height="16" viewBox="0 0 102 16" fill="none"><g opacity="0.5" clip-path="url(#clip0_1_587)"><path d="M5.69392 15.7937H0.835938V0.257812H9.24043L18.8811 11.8572V0.257812H23.7398V15.7937H15.5063L5.69392 3.99787V15.7937Z" fill="#293036"></path><path d="M40.2829 12.0537C41.3934 12.0537 41.7849 11.9924 42.0497 11.7658C42.2994 11.5529 42.4082 11.2786 42.4082 10.3664V5.62363C42.4082 4.71249 42.2994 4.43926 42.0497 4.22535C41.7849 3.99779 41.3936 3.93735 40.2829 3.93735H32.3939C31.2845 3.93735 30.893 3.99779 30.6283 4.22535C30.3785 4.43926 30.2686 4.71249 30.2686 5.62363V10.3663C30.2686 11.2785 30.3785 11.5527 30.6283 11.7657C30.893 11.9922 31.2843 12.0535 32.3939 12.0535H40.2829V12.0537ZM46.9862 10.9906C46.9862 13.1484 46.58 13.8935 45.9087 14.6074C44.8771 15.672 43.3779 15.9911 40.4886 15.9911H32.1911C29.3 15.9911 27.7999 15.672 26.769 14.6074C26.0971 13.8935 25.6914 13.1484 25.6914 10.9906V5.00037C25.6914 2.84246 26.0971 2.09858 26.769 1.38277C27.7999 0.319015 29.3 0 32.1911 0H40.4886C43.3779 0 44.8771 0.319015 45.9087 1.38277C46.5801 2.09846 46.9862 2.84234 46.9862 5.00037V10.9906Z" fill="#293036"></path><path d="M62.6262 0.257812H69.3285L60.2821 7.52391L70.4879 15.7937H63.3122L54.0479 7.69117L62.6262 0.257812ZM48.9705 0.257812H54.0479V15.7937H48.9705V0.257812Z" fill="#293036"></path><path d="M76.5015 0.257812H71.4219V15.7937H76.5015V0.257812Z" fill="#293036"></path><path d="M86.296 9.71307H92.6089L89.4511 4.08932L86.296 9.71307ZM95.8589 15.7937L94.3589 13.0875H84.5323L83.0472 15.7937H77.4375L86.4379 0.257812H92.7489L101.749 15.7937H95.8589Z" fill="#293036"></path></g><defs><clipPath id="clip0_1_587"><rect width="101" height="16" fill="white" transform="translate(0.75)"></rect></clipPath></defs></svg> 