<?xml version="1.0" encoding="UTF-8"?> <svg xmlns="http://www.w3.org/2000/svg" width="157" height="20" viewBox="0 0 157 20" fill="none"><g opacity="0.5" clip-path="url(#clip0_1_573)"><path d="M29.0409 16.083L30.5865 14.1663C31.9694 15.4163 33.4337 16.1663 35.3047 16.1663C36.9316 16.1663 37.9078 15.4163 37.9078 14.2497V14.1663C37.9078 13.083 37.3383 12.4997 34.5725 11.833C31.4 11.083 29.6104 10.083 29.6104 7.24967C29.6104 4.66634 31.7254 2.83301 34.7352 2.83301C36.9316 2.83301 38.6399 3.49967 40.1855 4.74967L38.8026 6.74968C37.501 5.74967 36.1181 5.16634 34.7352 5.16634C33.1896 5.16634 32.2948 5.99967 32.2948 6.99967V7.08301C32.2948 8.24967 32.9456 8.83301 35.8741 9.49967C39.0466 10.2497 40.6736 11.4163 40.6736 13.9997V14.083C40.6736 16.9163 38.4772 18.6663 35.3047 18.6663C32.9456 18.4997 30.8306 17.7497 29.0409 16.083ZM48.4829 10.9997C50.4352 10.9997 51.6554 9.83301 51.6554 8.24967C51.6554 6.41634 50.4352 5.49967 48.4829 5.49967H45.4731V10.9997H48.4829ZM42.7886 3.08301H48.6456C52.1435 3.08301 54.3399 5.08301 54.3399 8.16634V8.24967C54.3399 11.6663 51.6554 13.4997 48.4016 13.4997H45.4731V18.333H42.87L42.7886 3.08301ZM56.6176 3.08301H67.6808V5.41634H59.2207V9.41634H66.7047V11.833H59.2207V15.9163H67.7622V18.333H56.6176V3.08301ZM70.4466 3.08301H81.5098V5.41634H73.0498V9.41634H80.5337V11.833H73.0498V15.9163H81.5912V18.333H70.4466V3.08301ZM86.8788 5.49967V15.9163H89.8073C92.8985 15.9163 95.0135 13.7497 95.0135 10.7497V10.6663C95.0135 7.66634 92.9798 5.49967 89.8073 5.49967H86.8788ZM84.2757 3.08301H89.8073C94.5254 3.08301 97.6979 6.33301 97.6979 10.6663V10.7497C97.6979 15.083 94.444 18.4163 89.8073 18.4163H84.2757V3.08301ZM103.962 5.49967H99.2435V3.08301H111.364V5.49967H106.646V18.333H103.962V5.49967ZM114.13 3.08301H125.193V5.41634H116.733V9.41634H124.217V11.833H116.733V15.9163H125.275V18.333H114.13V3.08301ZM127.39 16.083L128.935 14.1663C130.318 15.4163 131.782 16.1663 133.653 16.1663C135.28 16.1663 136.256 15.4163 136.256 14.2497V14.1663C136.256 13.083 135.687 12.4997 132.921 11.833C129.749 11.083 127.959 10.083 127.959 7.24967C127.959 4.66634 130.074 2.83301 133.084 2.83301C135.28 2.83301 136.989 3.49967 138.534 4.74967L137.151 6.74968C135.85 5.74967 134.467 5.16634 133.084 5.16634C131.538 5.16634 130.644 5.99967 130.644 6.99967V7.08301C130.644 8.24967 131.294 8.83301 134.223 9.49967C137.395 10.2497 139.022 11.4163 139.022 13.9997V14.083C139.022 16.9163 136.826 18.6663 133.653 18.6663C131.294 18.4997 129.179 17.7497 127.39 16.083ZM145.367 5.49967H140.649V3.08301H152.77V5.49967H148.052V18.333H145.367V5.49967ZM18.7099 19.1663C20.5808 17.2497 21.801 14.583 21.801 11.583C21.801 5.66634 17.0829 0.833008 11.3073 0.833008C5.53161 0.833008 0.813477 5.66634 0.813477 11.583C0.813477 14.583 1.95234 17.2497 3.90467 19.1663L5.36892 17.6663C3.82332 16.083 2.9285 13.9997 2.9285 11.583C2.9285 6.83301 6.67047 2.99967 11.3073 2.99967C15.944 2.99967 19.686 6.83301 19.686 11.583C19.686 13.9163 18.7099 16.083 17.2456 17.6663L18.7099 19.1663Z" fill="#293036"></path><path d="M10.9818 13.75L9.1922 11.8333L15.1305 6.5L16.1881 7.66667L10.9818 13.75ZM155.21 4.25C155.373 4.25 155.536 4.16667 155.536 4C155.536 3.83333 155.454 3.75 155.21 3.75H154.804V4.25H155.21ZM154.56 3.5H155.21C155.373 3.5 155.536 3.58333 155.617 3.66667C155.698 3.75 155.78 3.83333 155.78 4C155.78 4.25 155.617 4.41667 155.454 4.41667L155.861 5H155.536L155.21 4.5H154.885V5H154.56V3.5Z" fill="#293036"></path><path d="M155.129 3C154.479 3 153.909 3.58333 153.909 4.25C153.909 4.91667 154.479 5.5 155.129 5.5C155.78 5.5 156.35 4.91667 156.35 4.25C156.35 3.58333 155.78 3 155.129 3ZM155.129 3.16667C155.699 3.16667 156.187 3.66667 156.187 4.25C156.187 4.83333 155.699 5.33333 155.129 5.33333C154.56 5.33333 154.072 4.83333 154.072 4.25C154.072 3.66667 154.479 3.16667 155.129 3.16667Z" fill="#293036"></path></g><defs><clipPath id="clip0_1_573"><rect width="157" height="20" fill="white"></rect></clipPath></defs></svg> 