<?xml version="1.0" encoding="UTF-8"?> <svg xmlns="http://www.w3.org/2000/svg" width="137" height="20" viewBox="0 0 137 20" fill="none"><path fill-rule="evenodd" clip-rule="evenodd" d="M42.2791 11.495C42.2923 11.2802 42.2998 11.0635 42.2998 10.8449C42.3008 9.42172 42.0215 8.01227 41.4778 6.69705C40.934 5.38182 40.1366 4.18656 39.131 3.17952C38.1253 2.17248 36.9312 1.37337 35.6167 0.827829C34.3022 0.282286 32.8932 0.000989524 31.47 0C31.2288 0 30.9914 0.0113066 30.7558 0.026382V1.57915C30.9914 1.56031 31.2288 1.549 31.47 1.549C33.9336 1.549 36.2963 2.52753 38.0385 4.26939C39.7807 6.01124 40.7597 8.37376 40.7602 10.8374C40.7602 11.056 40.7489 11.2727 40.7339 11.4875L42.2791 11.495ZM31.1478 2.80406C29.5079 2.80406 27.9048 3.29034 26.5413 4.20143C25.1777 5.11251 24.115 6.40746 23.4874 7.92253C22.8599 9.4376 22.6957 11.1047 23.0156 12.7131C23.3355 14.3215 24.1252 15.7989 25.2848 16.9585C26.4444 18.1181 27.9218 18.9078 29.5302 19.2277C31.1386 19.5477 32.8057 19.3835 34.3208 18.7559C35.8359 18.1283 37.1308 17.0656 38.0419 15.7021C38.953 14.3385 39.4393 12.7355 39.4393 11.0956C39.4353 8.89773 38.5604 6.79107 37.0063 5.23698C35.4523 3.68289 33.3456 2.80804 31.1478 2.80406ZM30.4242 11.8116V10.3342C30.8105 10.3509 31.1764 10.512 31.4497 10.7855C31.7229 11.0591 31.8835 11.4253 31.8997 11.8116H30.4242ZM33.4506 11.8116C33.4342 11.0139 33.1102 10.2534 32.5462 9.68907C31.9822 9.12472 31.2218 8.8002 30.4242 8.78335V7.23435C31.6325 7.25189 32.7864 7.73982 33.6407 8.59451C34.4951 9.4492 34.9825 10.6033 34.9996 11.8116H33.4506ZM36.5486 11.8116C36.5314 10.1927 35.8806 8.64485 34.7358 7.5C33.5909 6.35515 32.0431 5.70439 30.4242 5.68723V4.14577C32.4541 4.16349 34.3959 4.97788 35.8312 6.4135C37.2664 7.84913 38.0803 9.7911 38.0976 11.8211L36.5486 11.8116ZM55.4023 19.0912H49.6736L46.2703 13.2758H46.1214V19.0912H41.0957V12.9724H41.7665V18.4203H45.4506V12.605H46.6547L50.0599 18.4203H54.1868L50.2408 12.1716L50.6045 12.0189C52.3344 11.2878 53.2125 10.0045 53.2125 8.20295C53.2125 6.48811 52.4437 5.24439 50.9267 4.50946C49.9318 4.01197 48.6164 3.78019 46.781 3.78019H41.7665V5.31977H41.0957V3.10933H46.781C48.7238 3.10933 50.1353 3.36373 51.2226 3.90644C52.9619 4.75067 53.8834 6.23748 53.8834 8.20295C53.8834 10.1684 52.9657 11.61 51.2226 12.4731L55.4023 19.0912ZM18.7802 19.0912H13.6678L12.5371 15.1471C12.2695 14.2049 12.0057 13.2627 11.7532 12.3205C11.4837 13.3154 11.2105 14.2878 10.9391 15.2225L9.80846 19.1007H4.81095L0 3.10938H5.27641L6.82541 8.79282C7.07604 9.70677 7.32855 10.6584 7.56976 11.595C7.8185 10.6923 8.09551 9.71053 8.37818 8.76832L10.0346 3.11503H13.73L15.343 8.75136L15.3647 8.82714L15.3647 8.82731C15.6219 9.72739 15.8892 10.6627 16.1439 11.6176C16.3548 10.812 16.5884 9.99049 16.8256 9.1563L16.9599 8.68352L18.5541 3.10938H23.6571L18.7802 19.0912ZM14.1747 18.4204H18.279L22.7488 3.78023H19.0554L17.6025 8.86819C17.203 10.2646 16.828 11.6289 16.4831 12.9235L16.4172 13.1722H15.8518L15.7859 12.9197C15.4523 11.578 15.0641 10.2099 14.6986 8.93038L13.2249 3.78023H10.5359L9.02831 8.95299C8.62127 10.3286 8.22554 11.7363 7.90896 12.9216L7.843 13.1703H7.27767L7.2136 12.916C6.89136 11.6232 6.53332 10.2589 6.17905 8.95865L4.76573 3.77081H0.902642L5.31033 18.4204H9.31286L10.3003 15.0284C10.6772 13.7451 11.0541 12.3902 11.4196 10.9976L11.495 10.7413H12.0604L12.1244 10.9938C12.4636 12.3337 12.8273 13.632 13.2004 14.9511L14.1747 18.4204ZM56.7214 19.0912H68.1278L68.1354 14.7419H61.749V3.10933H56.7214V19.0912ZM67.4626 18.4203H57.3866L57.3847 3.78019H61.0706V15.4052H67.4626V18.4203ZM74.2654 19.0912H69.4488V3.10933H74.1825C77.5274 3.10933 79.9451 3.70669 81.5732 4.93346C83.3503 6.26575 84.3283 8.463 84.3283 11.1182C84.3283 13.5246 83.5387 15.5183 82.0425 16.8845C80.3766 18.3921 77.9061 19.0912 74.2654 19.0912ZM70.1197 18.4203H74.2654C77.7309 18.4203 80.0582 17.7759 81.5902 16.3927C82.9621 15.1395 83.6631 13.3663 83.6631 11.1163C83.6631 8.66652 82.7793 6.66714 81.1737 5.46298C79.6662 4.33233 77.3804 3.767 74.1863 3.767H70.1178L70.1197 18.4203ZM74.3106 15.4052H73.8056V6.78397H74.2899C75.7711 6.78397 77.4313 6.89515 78.5299 7.72618C79.4891 8.44981 79.9752 9.59366 79.9752 11.1182C79.9752 12.3035 79.6869 13.257 79.1159 13.9448C78.2585 14.9775 76.8226 15.4109 74.3088 15.4109L74.3106 15.4052ZM74.4765 14.74V7.4605C76.3051 7.47761 77.4014 7.72637 78.1266 8.25948C78.9181 8.86061 79.3044 9.80283 79.3044 11.1219C79.3044 12.1471 79.0914 12.9404 78.5996 13.5283C78.1078 14.1163 77.2296 14.7174 74.4765 14.74ZM45.4506 10.2946H46.8658C47.7402 10.2946 48.3583 10.1759 48.7465 9.93094C49.1026 9.72553 49.5266 9.29965 49.5266 8.43658C49.5266 7.50379 49.0253 7.06849 48.5938 6.86497C48.1623 6.66145 47.5819 6.57853 46.5907 6.57853H45.4506V10.2946ZM46.8658 9.62377H46.1214V7.24939H46.5907C47.4632 7.24939 47.9776 7.31535 48.3074 7.46987C48.6767 7.64701 48.8558 7.96171 48.8558 8.43658C48.8558 8.87754 48.7106 9.16963 48.3997 9.35807C48.2056 9.47867 47.7816 9.62377 46.8658 9.62377ZM98.4031 3.22427H103.41V18.9536H98.4031V3.22427ZM85.7058 3.22432H90.7109V14.6101H96.9634V18.9537H85.7058V3.22432ZM115.354 8.39703C115.354 9.28837 115.365 10.208 115.378 11.0823C114.835 10.3135 114.298 9.5748 113.727 8.79842L109.64 3.22427H105.087V18.9536H109.926V13.779C109.926 12.8763 109.917 11.9605 109.904 11.0937C110.445 11.8625 110.982 12.6012 111.556 13.3795L115.64 18.9536H120.195V3.22427H115.354V8.39703ZM136.612 3.22427L131.396 10.5566L137 18.9536H130.925L126.886 12.4636V18.9536H121.879V3.22427H126.886V8.94917L130.683 3.22427H136.612Z" fill="white"></path></svg> 